<?xml version="1.0" encoding="UTF-8" standalone="no"?>
<!DOCTYPE svg PUBLIC "-//W3C//DTD SVG 1.1//EN" "http://www.w3.org/Graphics/SVG/1.1/DTD/svg11.dtd">
<svg width="100%" height="100%" viewBox="0 0 1024 1024" version="1.1" xmlns="http://www.w3.org/2000/svg" xmlns:xlink="http://www.w3.org/1999/xlink" xml:space="preserve" xmlns:serif="http://www.serif.com/" style="fill-rule:evenodd;clip-rule:evenodd;stroke-linejoin:round;stroke-miterlimit:2;">
    <path d="M133.706,263.928L134.076,428.524L267.094,430.079L306.041,391.836L306.001,290.037L274.252,245.569L133.706,263.928Z" style="fill:rgb(66,132,235);fill-opacity:0.95;"/>
    <path d="M135.976,441.58C136.716,478.705 141.547,514.228 151.064,547.914L262.426,548.062L263.371,441.559L135.976,441.58Z" style="fill:rgb(49,101,191);"/>
    <path d="M154.299,559.992C168.65,613.79 188.832,663.191 218.15,705.706L304.989,705.307L320.221,689.673L320.43,610.887L268.353,559.361L154.299,559.992Z" style="fill:rgb(49,101,191);fill-opacity:0.85;"/>
    <path d="M224.378,716.338C234.395,732.129 244.615,746.859 255.381,758.733L295.32,716.18L224.378,716.338Z" style="fill:rgb(66,132,235);fill-opacity:0.95;"/>
    <path d="M263.481,767.156C298.606,810.501 338.895,847.285 383.941,878.026L442.775,818.564L442.42,693.613L331.918,691.664L263.481,767.156Z" style="fill:rgb(49,101,191);"/>
    <path d="M453.274,692.287L453.53,813.031L571.919,812.98L572.159,719.67L542.419,691.996L453.274,692.287Z" style="fill:rgb(49,101,191);fill-opacity:0.85;"/>
    <path d="M393.529,884.982C408.943,896.546 424.867,906.073 441.248,913.776L441.485,835.849L393.529,884.982Z" style="fill:rgb(49,101,191);fill-opacity:0.85;"/>
    <path d="M452.332,824.578L452.738,919.971L511.934,950.87L573.339,919.491L572.677,823.702L452.332,824.578Z" style="fill:rgb(66,132,235);fill-opacity:0.95;"/>
    <path d="M583.747,912.947L583.494,834.761L631.84,885.135C616.706,893 600.9,901.918 583.747,912.947Z" style="fill:rgb(49,101,191);fill-opacity:0.85;"/>
    <path d="M639.922,878.161L582.513,818.421L582.462,721.034L714.954,718.815L761.843,767.598C728.451,808.047 688.114,845.052 639.922,878.161Z" style="fill:rgb(49,101,191);"/>
    <path d="M768.816,759.172L728.268,717.275L800.203,718.348C790.514,732.82 780.17,746.56 768.816,759.172Z" style="fill:rgb(49,101,191);fill-opacity:0.85;"/>
    <path d="M703.322,706.081L703.035,610.757L753.677,558.972L870.871,560.782C856.681,611.704 837.317,660.931 807.179,706.632L703.322,706.081Z" style="fill:rgb(49,101,191);fill-opacity:0.95;"/>
    <path d="M318.248,291.057L318.039,387.714L413.221,386.72L412.543,289.955L318.248,291.057Z" style="fill:rgb(49,101,191);"/>
    <path d="M275.167,437.863L275.49,547.493L444.499,547.686L444.509,430.415L413.453,400.092L314.71,400.612L275.167,437.863Z" style="fill:rgb(49,101,191);fill-opacity:0.85;"/>
    <path d="M626.792,250.747L590.026,286.338L588.702,388.604L626.484,427.125L731.224,426.647L766.372,392.148L765.283,286.449L733.383,253.125L626.792,250.747Z" style="fill:rgb(49,101,191);fill-opacity:0.85;"/>
    <path d="M728.743,547.337L727.913,439.06L628.741,438.729L629.313,545.823L728.743,547.337Z" style="fill:rgb(56,125,234);fill-opacity:0.95;"/>
    <g transform="matrix(1.63965,0,0,1.51239,-308.316,-84.1801)">
        <path d="M471.719,153.886L471.628,200.026L521.916,200.571L541.644,224.035L541.375,151.845L503.243,119.958L471.719,153.886Z" style="fill:rgb(49,101,191);"/>
    </g>
    <path d="M591.133,145.934L590.474,269.243L618.925,239.588L733.878,240.522L733.911,120.68L591.133,145.934Z" style="fill:rgb(49,101,191);fill-opacity:0.85;"/>
    <g transform="matrix(1.28109,0,0,1.32199,-250.198,-25.7923)">
        <path d="M777.125,108.228L776.907,202.522L890.111,213.487L889.511,80.102L777.125,108.228Z" style="fill:rgb(49,101,191);"/>
    </g>
    <g transform="matrix(-1.28109,0,0,1.32199,1276.35,-27.6242)">
        <path d="M781.893,107.104L781.488,199.285L890.111,213.487L889.511,80.102L781.893,107.104Z" style="fill:rgb(49,101,191);"/>
    </g>
    <path d="M285.688,559.935L331.449,604.331L332.164,680.29L536.916,681.441L536.885,562.149L285.688,559.935Z" style="fill:rgb(66,132,235);fill-opacity:0.95;"/>
    <path d="M457.295,547.158L455.631,426.926L428.629,397.273L579.715,398.463L617.529,436.517L617.794,547.324L457.295,547.158Z" style="fill:rgb(49,101,191);"/>
    <path d="M549.243,561.024L548.771,680.129L578.554,708.401L691.338,706.556L690.302,604.861L736.301,561.159L549.243,561.024Z" style="fill:rgb(49,101,191);fill-opacity:0.85;"/>
    <path d="M424.118,284.352L424.481,383.269L576.698,385.153L578.247,267.351L542.775,229.726L463.536,228.293L424.118,284.352Z" style="fill:rgb(66,132,235);fill-opacity:0.95;"/>
    <path d="M284.871,239.957L316.095,281.258L412.898,280.215L452.96,223.558L451.85,147.977L286.29,118.958L284.871,239.957Z" style="fill:rgb(49,101,191);fill-opacity:0.85;"/>
    <path d="M873.84,547.71L740.573,546.775L740.821,434.996L773.102,402.059L890.638,402.167C888.855,451.863 883.586,500.48 873.84,547.71Z" style="fill:rgb(49,101,191);"/>
    <path d="M890.533,390.435L777.229,390.749L776.353,280.616L748.388,252.051L890.107,264.938L890.533,390.435Z" style="fill:rgb(66,132,235);fill-opacity:0.95;"/>
</svg>
